<?xml version="1.0" encoding="UTF-8"?> <svg xmlns="http://www.w3.org/2000/svg" width="662" height="482" viewBox="0 0 662 482" fill="none"> <g clip-path="url(#clip0_1147_2)"> <path d="M665.001 662C607.901 662 551.301 650.7 498.501 628.9C445.701 607 397.701 575 357.301 534.6C316.901 494.2 284.801 446.2 263.001 393.4C241.201 340.6 229.801 284 229.801 226.8H665.001V662Z" stroke="#58BBCA"></path> <path d="M4 1C33.7 1 63 6.8 90.4 18.2C117.8 29.5 142.7 46.2 163.7 67.2C184.7 88.2 201.3 113.1 212.6 140.5C223.9 167.9 229.8 197.3 229.8 226.9H4V1Z" stroke="#58BBCA"></path> </g> <defs> <clipPath id="clip0_1147_2"> <rect width="662" height="482" fill="white"></rect> </clipPath> </defs> </svg> 